<?xml version="1.0" standalone="no"?>
<!DOCTYPE svg PUBLIC "-//W3C//DTD SVG 20010904//EN"
 "http://www.w3.org/TR/2001/REC-SVG-20010904/DTD/svg10.dtd">
<svg version="1.0" xmlns="http://www.w3.org/2000/svg"
 width="1350.000000pt" height="1350.000000pt" viewBox="0 0 1350.000000 1350.000000"
 preserveAspectRatio="xMidYMid meet">
<metadata>
Created by potrace 1.10, written by Peter Selinger 2001-2011
</metadata>
<g transform="translate(0.000000,1350.000000) scale(0.100000,-0.100000)"
fill="#000000" stroke="none">
<path d="M2660 8080 c-128 -5 -184 -22 -219 -64 -8 -9 -19 -16 -26 -16 -19 0
-221 -216 -250 -268 -25 -45 -28 -92 -4 -92 5 0 14 -12 20 -27 6 -19 24 -34
52 -47 38 -17 75 -19 417 -23 305 -3 379 -7 397 -19 37 -23 44 -76 38 -290
-10 -423 -2 -1045 15 -1119 5 -24 24 -67 41 -96 l31 -53 -19 -35 c-10 -19 -29
-55 -43 -80 -21 -40 -24 -59 -25 -151 0 -101 1 -107 30 -146 78 -108 212 -123
340 -36 62 42 189 154 197 173 4 10 17 23 30 30 22 12 42 30 203 184 39 37 80
74 93 82 12 9 22 21 22 27 0 7 12 23 26 37 14 13 32 40 41 59 38 91 40 110 38
405 -1 160 2 308 7 330 10 42 54 115 70 115 6 0 41 31 79 69 38 38 76 72 85
75 8 3 22 22 30 41 8 19 20 35 28 35 15 0 61 39 149 128 34 34 87 86 117 115
135 128 231 234 255 282 21 43 25 66 25 137 0 98 -19 148 -72 189 -68 53 -52
51 -497 49 -229 -1 -432 -2 -451 -2 -19 0 -251 0 -515 -1 -499 0 -550 0 -600
6 -16 2 -86 1 -155 -3z m2191 -226 l-3 -119 -83 -80 c-81 -77 -286 -273 -504
-480 -58 -55 -128 -122 -157 -150 -28 -27 -64 -60 -78 -73 l-27 -23 2 -386 1
-387 -48 -44 c-27 -25 -116 -108 -198 -186 -81 -78 -167 -158 -190 -180 -22
-21 -74 -70 -113 -108 l-73 -70 -93 -3 c-51 -2 -98 0 -103 3 -7 5 -9 51 -5
130 l6 122 61 58 c34 31 117 109 185 173 68 64 148 138 177 165 l54 49 1 395
2 395 114 110 c62 61 171 167 242 236 135 132 214 205 228 211 5 2 11 13 15
25 7 22 6 23 -41 15 -26 -4 -193 -7 -371 -7 -208 0 -322 -4 -322 -10 0 -5 0
-299 0 -651 l0 -641 -44 -37 c-71 -58 -256 -243 -256 -256 0 -6 -10 -10 -22
-8 -19 2 -23 9 -21 33 1 17 2 376 3 799 l2 769 -449 -2 c-246 -1 -469 -4 -495
-8 -69 -8 -64 15 19 91 37 33 110 104 163 156 l95 95 1165 -1 1165 0 -4 -120z
m-885 -326 c8 -13 -36 -78 -52 -78 -8 0 -14 -3 -14 -8 0 -13 -164 -178 -205
-205 l-39 -27 -12 22 c-16 30 -12 261 5 282 7 8 25 17 39 19 49 8 273 4 278
-5z"/>
<path d="M5410 8080 c-103 -5 -118 -11 -168 -62 -38 -41 -52 -82 -52 -161 0
-66 9 -87 54 -135 47 -50 72 -59 184 -67 150 -11 141 9 148 -352 5 -273 7
-291 29 -339 18 -41 33 -58 71 -80 46 -27 55 -29 143 -26 74 2 99 6 113 20 70
68 87 89 93 116 3 17 7 163 8 323 2 357 -9 331 152 337 73 2 124 10 153 21 39
16 45 16 58 3 19 -19 13 -33 -131 -343 -13 -27 -27 -63 -31 -78 -3 -16 -12
-31 -20 -34 -7 -2 -22 -36 -34 -74 -12 -38 -25 -71 -30 -74 -5 -3 -12 -25 -15
-49 -6 -37 -3 -49 22 -83 48 -69 85 -87 178 -91 112 -5 150 7 213 69 28 29 52
56 52 60 0 5 19 19 43 33 40 23 48 24 210 23 l167 -2 35 -37 c19 -21 39 -38
44 -38 6 0 11 -6 11 -14 0 -19 42 -52 98 -76 64 -29 213 -28 260 0 41 25 68
25 123 0 50 -22 192 -28 231 -9 13 7 42 33 66 59 41 45 43 52 53 136 6 49 7
108 4 131 -9 60 12 123 40 123 21 0 55 -30 69 -60 3 -8 27 -42 51 -75 25 -33
62 -84 82 -114 21 -30 69 -85 106 -123 82 -81 111 -92 252 -89 116 2 172 18
228 68 20 18 41 33 46 33 5 0 34 -21 65 -47 55 -45 59 -47 136 -51 71 -4 85
-2 134 22 66 32 131 114 122 151 -3 13 -3 44 0 69 7 51 20 57 62 28 15 -10 35
-22 45 -25 9 -4 17 -16 17 -27 0 -11 5 -20 11 -20 12 0 129 -97 142 -118 4 -7
22 -19 40 -27 18 -8 48 -24 67 -36 32 -20 46 -21 177 -17 124 4 147 7 171 25
46 34 65 36 104 10 42 -29 79 -40 138 -40 89 1 133 14 169 52 42 44 57 79 66
156 8 70 42 115 85 115 41 0 107 -50 150 -113 111 -165 174 -207 306 -209 110
-1 150 12 206 69 47 48 47 48 37 92 -10 45 -42 106 -91 175 -28 39 -39 106
-18 106 6 0 10 7 10 15 0 8 15 32 34 52 44 49 65 100 81 196 24 146 -10 283
-93 370 -33 36 -148 111 -182 121 -110 29 -209 37 -510 38 l-317 2 -62 -42
c-61 -41 -77 -43 -111 -18 -8 7 -36 22 -61 34 -40 19 -63 22 -166 22 -114 0
-123 -2 -179 -30 -32 -16 -65 -30 -71 -30 -7 0 -13 -9 -13 -21 0 -15 -5 -19
-15 -15 -9 3 -33 -12 -63 -40 -57 -54 -130 -100 -141 -88 -4 5 -18 34 -31 64
-22 53 -65 112 -100 137 -25 18 -165 33 -203 22 -18 -5 -55 -29 -84 -54 -28
-25 -58 -45 -65 -45 -8 0 -33 16 -56 35 -58 50 -134 75 -211 68 -58 -6 -65 -9
-116 -61 -31 -30 -57 -64 -60 -76 -4 -18 -16 -194 -16 -236 -1 -32 -11 -70
-19 -70 -8 0 -37 28 -117 116 -13 14 -23 30 -23 36 0 20 -94 141 -157 203 -82
79 -118 91 -282 87 l-124 -2 -62 -45 c-48 -34 -64 -52 -69 -77 -14 -67 -21
-185 -16 -270 5 -78 -4 -264 -16 -345 -7 -47 -28 -41 -53 15 -12 26 -34 70
-49 98 -30 55 -101 204 -158 329 -89 196 -89 198 -158 248 l-66 48 -142 1
c-139 1 -144 0 -183 -26 -40 -27 -135 -124 -135 -139 0 -14 -63 -77 -71 -71
-5 3 -9 16 -9 29 0 38 -23 115 -35 115 -5 0 -23 14 -40 31 -60 61 -51 60 -478
62 -216 1 -435 0 -487 -3z m4581 -93 c-1 -4 -1 -15 -1 -25 0 -11 -11 -24 -24
-30 -14 -6 -67 -46 -118 -89 -51 -43 -106 -88 -121 -100 -27 -21 -123 -104
-173 -150 -14 -13 -28 -23 -32 -23 -4 -1 -24 -16 -44 -34 l-38 -33 107 -94
c124 -109 119 -105 254 -231 105 -98 220 -193 241 -200 7 -3 9 -12 5 -22 -6
-16 -15 -18 -60 -12 -28 3 -109 6 -178 6 l-127 0 -63 63 c-35 34 -102 96 -149
138 -101 91 -243 231 -264 261 -23 32 -50 17 -42 -25 7 -42 10 -426 3 -434 -5
-4 -169 -7 -239 -4 -12 1 -14 304 -8 1024 0 4 56 7 124 7 69 0 126 -3 128 -7
2 -5 1 -93 -2 -198 -3 -108 -2 -195 4 -203 6 -9 19 -1 51 30 55 56 199 188
305 279 47 40 88 77 92 83 4 6 70 11 162 12 86 2 164 8 173 13 19 11 35 10 34
-2z m-3643 -122 l-3 -110 -210 0 -210 0 2 -25 c4 -68 4 -773 -1 -777 -4 -4
-190 -7 -233 -4 -5 1 -6 184 -4 407 l3 406 -193 -2 c-107 -1 -199 -2 -205 -1
-7 1 -10 38 -8 109 1 59 2 107 3 107 1 0 240 0 531 0 l531 0 -3 -110z m674 91
c10 -12 17 -31 18 -42 0 -12 7 -27 15 -34 8 -7 15 -21 15 -31 0 -9 7 -24 15
-33 8 -8 15 -23 15 -34 0 -11 7 -25 15 -32 8 -7 15 -18 15 -26 0 -7 20 -52 44
-98 24 -47 47 -97 50 -111 4 -14 11 -25 16 -25 6 0 10 -11 10 -24 0 -13 7 -29
15 -36 8 -7 15 -20 15 -30 0 -10 7 -23 15 -30 8 -7 15 -19 15 -26 0 -8 13 -40
29 -71 16 -32 32 -65 35 -73 3 -8 10 -22 15 -30 5 -8 26 -51 47 -95 21 -44 44
-85 53 -91 8 -7 12 -18 7 -29 -5 -14 -14 -16 -44 -11 -20 3 -86 6 -145 6 -94
0 -108 2 -113 18 -3 9 -12 30 -20 45 -7 16 -14 37 -14 47 0 9 -6 23 -14 30 -8
6 -16 21 -18 33 -3 22 -3 22 -281 23 l-278 0 -19 -32 c-11 -17 -20 -38 -20
-46 0 -9 -7 -21 -15 -28 -8 -7 -15 -22 -15 -34 -1 -50 -17 -56 -165 -59 -111
-2 -138 0 -143 12 -3 7 1 19 9 25 13 9 73 124 93 176 3 8 10 22 15 30 19 30
71 146 71 156 0 7 7 17 15 24 8 7 15 20 15 30 0 10 7 23 15 30 8 7 15 23 15
35 0 12 7 28 15 35 8 7 15 18 15 24 0 6 14 39 30 73 38 78 87 183 94 203 3 8
10 22 15 30 24 42 41 79 41 89 0 7 7 22 15 35 15 22 19 23 178 23 151 -1 163
-2 179 -21z m939 15 c4 -1 9 -9 13 -18 3 -10 15 -31 26 -48 11 -16 25 -40 31
-52 7 -13 16 -23 21 -23 4 0 8 -5 8 -11 0 -6 19 -36 43 -67 24 -31 46 -65 50
-74 3 -10 10 -18 16 -18 5 0 11 -8 14 -17 4 -10 36 -58 71 -108 36 -49 88
-124 115 -165 28 -41 55 -81 61 -87 6 -7 15 -25 21 -39 6 -16 13 -24 19 -18 5
5 6 165 2 374 -5 242 -4 367 3 372 13 10 245 10 245 1 2 -310 -1 -1017 -4
-1021 -3 -3 -76 -4 -163 -3 -140 2 -160 4 -175 21 -10 11 -18 22 -18 25 0 4
-19 32 -43 63 -24 31 -53 74 -66 95 -12 20 -27 37 -32 37 -5 0 -9 5 -9 10 0 9
-77 117 -152 214 -13 16 -25 34 -27 40 -2 6 -23 36 -46 66 -23 30 -44 60 -46
65 -2 6 -24 40 -49 78 -53 79 -76 88 -66 25 12 -78 25 -350 26 -545 l0 -192
-112 -3 c-62 -2 -122 -2 -133 0 -20 3 -20 10 -20 510 0 279 3 510 8 513 5 4
337 4 368 0z m3003 -17 c11 -8 30 -14 42 -14 12 0 27 -7 34 -15 7 -8 18 -15
24 -15 17 0 78 -69 101 -114 17 -34 20 -59 19 -170 0 -123 -2 -133 -26 -171
-37 -57 -97 -111 -141 -126 -52 -18 -62 -32 -40 -55 10 -9 55 -67 100 -128 45
-61 96 -126 114 -143 54 -55 41 -61 -128 -55 -159 5 -152 3 -188 64 -5 9 -48
73 -95 142 l-85 126 -163 0 -163 0 6 -127 c3 -71 8 -144 10 -164 6 -45 6 -45
-142 -41 l-113 3 0 513 0 512 407 -4 c333 -3 410 -6 427 -18z m-939 -166 c3
-29 4 -176 3 -327 l-3 -275 -27 -7 c-37 -10 -72 17 -260 202 -118 114 -121
126 -50 193 26 24 64 57 85 73 21 15 68 56 105 90 37 35 72 63 78 63 7 0 14 9
17 20 3 12 14 20 25 20 17 0 22 -8 27 -52z m-3607 -91 c2 -12 -1 -15 -12 -11
-19 7 -22 38 -3 32 6 -3 13 -12 15 -21z"/>
<path d="M6833 7758 c-20 -32 -33 -62 -33 -77 0 -10 -7 -26 -15 -37 -8 -10
-15 -27 -15 -37 0 -10 -7 -25 -15 -33 -8 -9 -15 -24 -15 -33 0 -10 -7 -24 -15
-31 -8 -7 -15 -20 -15 -30 0 -10 -7 -23 -15 -30 -8 -7 -15 -20 -15 -30 0 -10
-7 -23 -15 -30 -8 -7 -15 -20 -15 -29 0 -14 22 -16 195 -16 144 0 195 3 195
12 0 6 -5 15 -11 18 -5 4 -14 17 -20 28 -5 12 -13 29 -18 37 -4 8 -16 33 -26
55 -9 22 -21 47 -26 55 -5 8 -12 22 -15 30 -3 8 -12 28 -20 43 -7 16 -14 37
-14 47 0 10 -4 21 -9 25 -5 3 -12 19 -16 35 -8 35 -20 46 -32 28z"/>
<path d="M10375 7758 c-3 -8 -4 -72 -3 -144 l3 -129 250 3 250 3 33 34 c30 32
32 39 32 105 0 67 -2 73 -32 101 l-32 29 -217 0 c-119 0 -230 3 -248 6 -22 5
-32 2 -36 -8z m380 -110 c29 -13 33 -34 8 -41 -10 -3 -59 -8 -109 -12 -75 -5
-93 -4 -103 9 -27 32 -6 45 76 49 43 1 83 4 90 5 7 1 24 -3 38 -10z"/>
<path d="M9615 6703 c-141 -11 -278 -46 -301 -77 -6 -9 -16 -16 -21 -16 -5 0
-24 -18 -42 -40 -18 -22 -41 -40 -51 -40 -11 0 -21 -4 -21 -10 -1 -5 -2 -14
-3 -19 -3 -24 -17 -14 -89 63 -59 63 -83 83 -98 79 -10 -3 -25 0 -32 6 -16 13
-148 41 -191 41 -17 0 -80 -1 -141 -2 -60 0 -123 -1 -140 0 -185 4 -364 0
-394 -8 -20 -5 -58 -30 -85 -54 -62 -57 -64 -68 -67 -366 -2 -223 -15 -371
-32 -371 -10 0 -167 308 -167 327 0 8 -10 31 -23 52 -13 20 -34 63 -46 95 -13
31 -26 57 -30 57 -4 0 -20 30 -36 68 -18 42 -49 88 -82 123 -69 73 -103 83
-262 77 -110 -4 -122 -6 -162 -32 -82 -55 -92 -70 -219 -341 -28 -60 -60 -127
-70 -148 -11 -22 -20 -45 -20 -52 0 -7 -7 -18 -15 -25 -8 -7 -15 -19 -15 -27
0 -19 -72 -165 -98 -198 -24 -30 -53 -32 -90 -6 -24 17 -51 20 -259 25 -242 5
-269 10 -279 51 -2 11 -5 155 -7 320 l-2 301 -39 47 c-45 55 -72 72 -134 82
-81 13 -145 -2 -201 -47 -85 -69 -83 -54 -79 -597 l3 -473 28 -20 c15 -11 27
-26 27 -34 0 -8 8 -14 18 -14 9 0 32 -9 50 -20 33 -20 49 -21 430 -21 369 0
398 2 422 19 43 31 60 34 94 13 47 -30 175 -38 247 -17 56 16 77 33 163 128
32 36 37 38 122 47 100 10 198 8 262 -7 32 -7 56 -23 100 -68 114 -118 103
-112 233 -110 99 1 119 4 150 24 39 24 74 29 84 12 4 -6 15 -8 25 -5 12 4 22
0 28 -11 12 -21 128 -32 302 -29 69 2 202 4 295 5 110 2 184 7 210 16 22 8 51
14 65 14 39 2 173 78 184 105 11 29 65 17 111 -23 118 -104 262 -135 595 -130
96 1 184 5 195 9 11 4 54 15 95 24 41 10 80 23 85 29 6 6 28 20 50 31 48 24
129 105 143 143 29 83 33 110 31 200 -2 53 -9 117 -16 141 -13 45 -57 127 -78
146 -6 6 -19 20 -28 31 -18 21 -17 23 10 55 54 63 66 89 61 133 -13 113 -113
229 -241 278 -94 37 -333 56 -512 41z m467 -129 c15 -8 35 -14 45 -14 24 0
113 -86 136 -130 9 -19 18 -53 20 -75 l2 -40 -128 2 c-128 2 -128 2 -158 33
l-31 30 -218 0 -218 0 -31 -29 c-40 -37 -43 -94 -7 -128 21 -21 34 -23 117
-23 52 0 153 -7 224 -15 72 -8 164 -15 205 -15 46 -1 85 -6 100 -15 14 -8 33
-14 43 -15 27 0 83 -46 107 -88 20 -33 22 -52 22 -177 1 -133 0 -143 -24 -180
-14 -22 -32 -45 -39 -51 -36 -29 -135 -74 -163 -74 -17 0 -56 -7 -86 -15 -78
-21 -415 -21 -484 0 -27 8 -63 15 -79 15 -56 0 -145 56 -192 121 -11 16 -35
94 -38 124 -2 19 5 20 127 23 l130 3 28 -33 28 -33 256 0 256 0 29 35 c36 43
37 79 3 119 -23 28 -32 31 -82 31 -32 0 -120 7 -197 15 -77 8 -181 15 -231 15
-62 0 -101 5 -120 15 -16 8 -38 15 -49 15 -24 0 -85 54 -108 95 -27 50 -39
173 -25 262 12 73 14 79 65 130 30 29 61 53 69 53 9 0 30 7 47 15 40 18 163
23 422 18 144 -4 207 -9 227 -19z m-4154 -389 l-3 -406 319 1 c175 1 321 -2
325 -7 4 -4 4 -52 1 -106 l-5 -98 -444 0 c-244 0 -448 4 -452 8 -5 5 -4 24 1
43 7 22 10 208 10 495 -1 253 -1 463 -1 468 1 4 57 7 127 7 l125 0 -3 -405z
m1529 388 c3 -10 32 -74 65 -143 63 -134 83 -176 92 -200 3 -8 10 -22 15 -30
5 -8 12 -22 15 -30 3 -8 10 -22 14 -30 9 -15 35 -71 46 -100 3 -8 10 -22 15
-30 5 -8 12 -22 15 -30 3 -8 10 -22 14 -30 5 -8 16 -31 24 -50 8 -19 47 -100
86 -179 40 -79 70 -147 67 -151 -2 -3 -66 -6 -141 -5 l-137 2 -18 38 c-11 21
-19 44 -19 51 0 6 -7 17 -15 24 -8 7 -15 23 -15 36 0 12 -5 26 -12 30 -6 4
-135 7 -287 7 l-276 1 -12 -25 c-11 -23 -24 -52 -57 -129 l-15 -35 -137 0
c-139 0 -161 6 -131 36 12 12 45 77 61 119 3 8 10 22 15 30 9 15 35 73 45 100
3 8 10 22 15 30 26 46 41 80 41 94 0 9 4 16 9 16 5 0 13 10 16 23 4 12 19 49
35 82 16 33 31 67 34 75 3 8 10 22 15 30 9 15 35 73 45 100 3 8 10 22 15 30
26 46 41 80 41 94 0 9 4 16 10 16 5 0 13 12 16 28 4 15 13 36 20 47 8 11 14
27 14 35 0 36 21 40 187 40 147 0 164 -2 170 -17z m1413 1 c68 -14 94 -24 128
-52 24 -19 48 -46 53 -61 5 -14 14 -34 19 -43 17 -29 12 -165 -6 -201 -23 -43
-55 -77 -76 -77 -19 0 -50 -39 -42 -52 3 -4 17 -8 31 -8 26 0 103 -54 103 -72
0 -5 7 -25 16 -43 19 -41 15 -181 -6 -235 -8 -19 -35 -55 -61 -80 -81 -77 -98
-80 -569 -81 -223 0 -410 0 -417 0 -9 1 -12 121 -11 511 l1 510 376 0 c308 0
391 -3 461 -16z m354 -570 c20 -19 21 -44 2 -44 -14 0 -26 21 -26 46 0 18 5
18 24 -2z"/>
<path d="M7262 6358 c-7 -7 -12 -22 -12 -34 0 -12 -8 -37 -17 -56 -9 -18 -22
-45 -30 -60 -7 -14 -13 -33 -13 -41 0 -8 -7 -20 -15 -27 -8 -7 -15 -20 -15
-30 0 -10 -7 -23 -15 -30 -8 -7 -15 -19 -15 -27 0 -7 -10 -27 -21 -42 -12 -16
-18 -34 -15 -40 5 -7 69 -11 193 -11 l185 0 -7 28 c-3 15 -13 34 -21 43 -8 8
-14 23 -14 31 0 9 -7 21 -15 28 -8 7 -15 20 -15 30 0 10 -7 23 -15 30 -8 7
-15 19 -15 27 0 8 -6 27 -14 41 -29 57 -46 104 -46 127 0 27 -27 34 -48 13z"/>
<path d="M8279 6378 c0 -2 -1 -48 -2 -103 l-1 -100 242 -3 c227 -2 245 -1 282
18 44 23 56 50 47 107 -4 23 -17 45 -34 60 -27 22 -33 22 -280 23 -139 0 -253
-1 -254 -2z"/>
<path d="M8279 5983 c-4 -26 4 -209 9 -214 4 -4 125 -4 268 0 260 6 262 7 288
31 21 21 26 34 26 76 0 54 -9 71 -52 97 -24 15 -61 17 -283 17 -140 0 -256 -3
-256 -7z"/>
</g>
</svg>
